<svg xmlns="http://www.w3.org/2000/svg" x="0px" y="0px" viewBox="0 0 100 100" style="enable-background:new 0 0 100 100;" xml:space="preserve"><style type="text/css">	.wdt-custom-rounded-icon-class-1{fill:#FFC1A7;}	.wdt-custom-rounded-icon-class-2{fill:#B9CFD4;}	.wdt-custom-rounded-icon-class-3{fill:#FF986D;}</style><g>	<g>		<path d="M65.1,88.3c-1.5-1.2-2.9-2.5-4.2-3.7C53.9,77.9,46.2,68.2,39.2,57S26.5,34.7,23.5,25.6c-2.3-6.7-4.1-15.2-0.2-17.8   s10.8,2.7,15.9,7.6c6.9,6.6,14.6,16.4,21.7,27.6s12.6,22.3,15.7,31.4c2.3,6.7,4.1,15.2,0.2,17.8C73.9,94.1,69.3,91.7,65.1,88.3z    M33.9,13.1c-4.4-3.5-7.9-4.9-9.7-3.8c-2.3,1.5-1.9,7.3,0.9,15.7c3,9,8.6,20,15.5,31s14.6,20.7,21.4,27.2   c6.4,6.1,11.5,8.9,13.8,7.4c2.3-1.5,1.9-7.3-0.9-15.7c-3-9-8.6-20-15.5-31S44.8,23.3,37.9,16.7C36.5,15.3,35.1,14.1,33.9,13.1z"></path>		<path class="wdt-custom-rounded-icon-class-1" d="M69.2,91.7c2.6-1.6,3.5-5.1,1.9-7.7c-1.6-2.7-5.1-3.6-7.7-2c-2.6,1.6-3.5,5.1-1.9,7.7   C63.1,92.4,66.5,93.3,69.2,91.7z"></path>	</g>	<g>		<path d="M26.6,94.1c-3.4-2.7-2.3-10.8-0.8-17.3c2.2-9.4,6.7-21,12.7-32.8s12.8-22.2,19-29.5c4.6-5.3,11-11.3,15.1-9.1   c4.1,2.2,3.1,10.8,1.4,17.7c-2.2,9.4-6.7,21-12.7,32.8s-12.8,22.2-19,29.5c-4.6,5.3-11,11.3-15.1,9.1C27,94.4,26.8,94.3,26.6,94.1   z M71.9,7c-2.4-1.2-7.2,2-13,8.7c-6.2,7.2-12.9,17.5-18.8,29.1S29.7,68,27.5,77.2c-2,8.6-1.8,14.5,0.5,15.8c2.4,1.2,7.2-2,13-8.7   c6.2-7.2,12.9-17.5,18.8-29.1S70.3,32,72.5,22.8C74.5,14.2,74.3,8.3,71.9,7z"></path>		<path class="wdt-custom-rounded-icon-class-2" d="M46.7,16.5c0.1-4.5-3.3-8.2-7.8-8.3c-4.4-0.1-8.1,3.4-8.2,7.8c-0.1,4.5,3.3,8.2,7.8,8.3   C42.9,24.5,46.6,21,46.7,16.5z"></path>	</g>	<g>		<path d="M2.8,56.2c-0.6-0.4-1.2-1-1.6-1.7c-0.4-0.7-0.7-1.4-0.7-2.2C0.3,47.6,8.3,44.2,15,42.2c9.1-2.7,21.4-4.6,34.4-5.2   s25.4,0.1,34.8,1.9c6.9,1.4,15.1,4,15.3,8.7S91.7,55.8,85,57.8c-9.1,2.7-21.4,4.6-34.4,5.2c-13.1,0.6-25.4-0.1-34.8-1.9   C11.1,60.1,5.8,58.6,2.8,56.2z M96.1,45.2c-2.2-1.7-6.5-3.3-12.3-4.5c-9.2-1.8-21.4-2.5-34.3-1.9c-12.9,0.6-25,2.4-34,5.1   c-8.4,2.5-13.3,5.6-13.2,8.3s5.3,5.3,13.9,7.1c9.2,1.8,21.4,2.5,34.3,1.9c12.9-0.6,25-2.4,34-5.1c8.4-2.5,13.3-5.6,13.2-8.4   c-0.1-0.5-0.3-1-0.6-1.5C96.9,45.8,96.5,45.4,96.1,45.2z"></path>		<path class="wdt-custom-rounded-icon-class-3" d="M40.1,65c4.6-0.2,8.1-4,8-8.6c-0.2-4.6-4-8.2-8.5-8.1s-8.1,4-8,8.6C31.8,61.5,35.6,65.1,40.1,65z"></path>	</g></g></svg>
