<svg xmlns="http://www.w3.org/2000/svg" xmlns:xlink="http://www.w3.org/1999/xlink" x="0px" y="0px" viewBox="0 0 382 548" style="enable-background:new 0 0 382 548; fill:#CB98E8;" xml:space="preserve">	<style type="text/css">	.education-box-0{fill:none;stroke:#000000;stroke-miterlimit:10;}	.education-box-1{fill:none;stroke:#000000;stroke-miterlimit:10;stroke-dasharray:12.185,5.0771;}	.education-box-2{fill:none;stroke:#000000;stroke-miterlimit:10;stroke-dasharray:11.6867,4.8695;}	.education-box-3{fill:none;stroke:#000000;stroke-miterlimit:10;stroke-dasharray:11.9572,4.9822;}	.education-box-4{fill:none;stroke:#000000;stroke-miterlimit:10;stroke-dasharray:11.5762,4.8234;}	</style>	<g>		<path d="M377.4,285.7v55.8c-0.3,2-0.9,4-1,6c-2,28.9-3.4,57.8-5.9,86.6c-3.2,36.6-10.1,72.6-18.7,108.4H36.9  c-0.3-1.3-0.4-2.5-0.8-3.8C16.8,479.3,7.6,418.2,5.8,355.9c-0.1-3.3-0.7-6.6-1.1-9.9c0-15.6,0-31.3,0-46.9c0.3-1.6,0.9-3.2,0.9-4.9  c1.3-23.2,2.1-46.4,3.8-69.6c1.9-25.6,4.5-51.1,7.1-76.6c2.6-25.9,5.6-51.7,8.5-77.5c1-9.4,2.1-18.8,3-27.6c0.9-0.7,1.1-1,1.4-1.2  c42.8-17.1,86.8-29.6,132.9-33.9c7.9-0.7,15.8-1.6,23.7-2.4c9.3,0,18.5,0,27.8,0c5.5,0.5,11,1,16.5,1.5  c43.6,3.8,85.6,14.4,126.2,30.8c1.7,0.7,3.3,1.5,4.5,2.1c2.8,35.3,5.9,69.9,8.1,104.6c2.8,44.5,4.9,89.1,7.3,133.6  C376.5,280.6,377,283.2,377.4,285.7L377.4,285.7z"></path>		<g>			<path class="education-box-0" d="M376.5,279.8c0.2,2,0.6,4,0.8,5.9l0,0v6"></path>			<path class="education-box-1" d="M377.4,296.8v44.7c-0.3,2-0.9,4-1,6c-2,28.9-3.4,57.8-5.9,86.6c-3,33.8-9.1,67.1-16.7,100.1"></path>			<path class="education-box-0" d="M353.2,536.7c-0.5,1.9-0.9,3.9-1.4,5.8h-6"></path>			<line class="education-box-2" x1="340.9" y1="542.5" x2="45.3" y2="542.5"></line>			<path class="education-box-0" d="M42.9,542.5h-6c-0.3-1.3-0.4-2.5-0.8-3.8c-0.2-0.7-0.4-1.4-0.7-2.1"></path>			<path class="education-box-3" d="M34,531.9c-17.8-57.3-26.4-116.1-28.2-176c-0.1-3.3-0.7-6.6-1.1-9.9c0-15.6,0-31.3,0-46.9   c0.3-1.6,0.9-3.2,0.9-4.9c1.3-23.2,2.1-46.4,3.8-69.6c1.9-25.6,4.5-51.1,7.1-76.6c2.6-25.9,5.6-51.7,8.5-77.5   c1-9.4,2.1-18.8,3-27.6c0.9-0.7,1.1-1,1.4-1.2c42.8-17.1,86.8-29.6,132.9-33.9c7.9-0.7,15.8-1.6,23.7-2.4c9.3,0,18.5,0,27.8,0   c5.5,0.5,11,1,16.5,1.5c42.4,3.7,83.3,13.8,122.9,29.5"></path>			<path class="education-box-0" d="M355.5,37.4c0.3,0.1,0.7,0.3,1,0.4c1.7,0.7,3.3,1.5,4.5,2.1c0.2,2,0.3,4,0.5,6"></path>			<path class="education-box-4" d="M361.8,50.7c2.5,31.6,5.3,62.7,7.3,93.8c2.8,44.3,4.8,88.6,7.3,132.9"></path>		</g>	</g></svg>