<svg xmlns="http://www.w3.org/2000/svg" x="0px" y="0px" viewBox="0 0 50 50" xml:space="preserve"><style type="text/css">	.wdt-custom-star2{fill:#F26522;}</style><path class="wdt-custom-star2" d="M40.8,29.5c5.9-2.1,8.5-3.2,8.6-5.1c0-0.6-4.1-2.8-12.5-6.5c-1.5-0.7-2.8-1.3-3.5-1.6l-0.1-0.6 c-1.4-8.4-2.1-12.6-4.7-13.1c-2.4-0.5-4.8,2-11.3,11.4c-0.8,0-2.1,0-3.6,0c-8.6,0-13,0.4-13.1,1.3c-0.2,2.1,3.3,6,10.3,11.7 c-0.5,0.9-0.9,1.8-1.4,2.7c-1.5,3-3.2,6.2-4.5,9.4C5,39.3,4.7,39.7,4.5,40c-0.7,0.9-1.2,1.8-0.8,2.6c0.1,0.2,0.3,0.5,0.8,0.7 c0.1,0,0.3,0.1,0.5,0.1c4.5,0.1,14.2-5.6,16.8-7.2c0.6,0.4,1.3,0.9,2.1,1.4c1.1,0.7,2.4,1.5,2.9,2c0.8,0.8,1.7,1.8,2.6,2.7 c2.4,2.6,4.4,4.7,6,5.2c0.6,0.2,1.1,0.1,1.6-0.1c1.4-0.7,1.9-2.7,0.1-10.3c-0.1-0.3-0.2-0.7-0.4-1.3c-0.3-0.9-1-3.2-1-4 C36.4,31.1,38.9,30.2,40.8,29.5z M34.4,36.3c0.2,0.5,0.3,0.9,0.3,1.2c1.2,5.3,1.1,7.1,1,7.7c-1-0.4-3.3-2.8-4.8-4.5 c-0.9-0.9-1.8-1.9-2.6-2.7c-0.7-0.7-1.9-1.5-3.3-2.3c-1-0.6-2-1.3-2.5-1.7c0,0,0,0-0.1,0c-0.1,0-0.1-0.1-0.2-0.1 c-0.1,0-0.1-0.1-0.2-0.1c-0.1,0-0.1,0-0.2,0c-0.1,0-0.1,0-0.2,0c-0.1,0-0.1,0-0.2,0.1c-0.1,0-0.2,0-0.2,0.1c0,0,0,0-0.1,0 c-3.2,2.1-10.3,6-14.5,7c0.2-0.3,0.3-0.6,0.5-0.8c1.3-3.1,2.9-6.2,4.4-9.2c0.6-1.2,1.3-2.5,1.9-3.7c0.3-0.6,0.1-1.3-0.5-1.6 c-0.1,0-0.2-0.1-0.3-0.1c0,0,0,0-0.1-0.1c-5.1-4.1-8.3-7.4-9.4-9c2.3-0.1,7.4-0.1,10.4-0.1c2.1,0,3.7,0,4.3,0h0c0,0,0,0,0,0 c0.1,0,0.2,0,0.4-0.1c0,0,0.1,0,0.1-0.1c0.1,0,0.1-0.1,0.2-0.2c0,0,0.1-0.1,0.1-0.1c0,0,0.1,0,0.1-0.1c1.9-2.8,7.7-11.3,9.2-11 c1.1,0.2,2,5.9,3,11.3l0.2,1.2c0,0,0,0.1,0,0.1c0,0.1,0.1,0.1,0.1,0.2c0,0.1,0.1,0.1,0.1,0.2c0,0.1,0.1,0.1,0.1,0.2 c0.1,0.1,0.1,0.1,0.2,0.1c0,0,0,0,0.1,0.1c0.4,0.2,2,0.9,4.1,1.9c3,1.3,8.1,3.6,10.4,4.7C45,25.6,42,26.6,40,27.3 c-3.8,1.3-5.8,2.1-6.5,3.1C33,31.2,33.3,32.6,34.4,36.3L34.4,36.3z"/></svg>