<svg xmlns="http://www.w3.org/2000/svg" x="0px" y="0px" viewBox="0 0 50 50" xml:space="preserve"><style type="text/css">	.wdt-custom-star-1{fill:#88B520;}</style><path class="wdt-custom-star-1" d="M40.7,29.9c5.9-2.3,8.4-3.5,8.5-5.5c0-0.7-4.1-3-12.4-7c-1.5-0.7-2.8-1.4-3.5-1.7L33.2,15 c-1.4-9-2.1-13.6-4.7-14.2c-2.4-0.6-4.8,2.1-11.2,12.4c-0.8,0-2.1,0-3.6,0c-8.6,0-12.9,0.4-13,1.4C0.5,16.7,4,21,11,27.1 c-0.5,1-0.9,2-1.4,2.9c-1.5,3.3-3.1,6.7-4.4,10.1c-0.1,0.2-0.4,0.6-0.6,1C4,42.2,3.4,43,3.9,44c0.1,0.2,0.3,0.6,0.8,0.7 c0.1,0,0.3,0.1,0.5,0.1c4.5,0.1,14.1-6,16.7-7.7c0.6,0.5,1.3,1,2,1.5c1.1,0.8,2.3,1.6,2.9,2.2c0.8,0.9,1.7,1.9,2.6,2.9 c2.4,2.8,4.4,5.1,6,5.6c0.6,0.2,1.1,0.2,1.6-0.1c1.4-0.8,1.9-2.9,0.1-11.2c-0.1-0.3-0.2-0.8-0.4-1.4c-0.3-1-1-3.4-1-4.3 C36.3,31.6,38.8,30.6,40.7,29.9z M34.4,37.2c0.2,0.6,0.3,1,0.3,1.3c1.2,5.8,1.1,7.7,1,8.3c-1-0.5-3.2-3.1-4.8-4.8 c-0.9-1-1.8-2-2.6-3c-0.7-0.7-1.9-1.6-3.2-2.5c-1-0.7-2-1.4-2.5-1.8c0,0,0,0-0.1,0c-0.1,0-0.1-0.1-0.2-0.1c-0.1,0-0.1-0.1-0.2-0.1 c-0.1,0-0.1,0-0.2,0c-0.1,0-0.1,0-0.2,0c-0.1,0-0.1,0-0.2,0.1c-0.1,0-0.2,0-0.2,0.1c0,0,0,0-0.1,0C18,36.7,11,41,6.8,42 c0.2-0.3,0.3-0.6,0.4-0.9c1.3-3.4,2.8-6.7,4.4-9.9c0.6-1.3,1.3-2.7,1.9-4c0.3-0.6,0.1-1.4-0.5-1.7c-0.1,0-0.2-0.1-0.3-0.1 c0,0,0,0-0.1-0.1c-5.1-4.4-8.3-8-9.3-9.7c2.3-0.1,7.4-0.1,10.3-0.1c2.1,0,3.7,0,4.3,0h0c0,0,0,0,0,0c0.1,0,0.2,0,0.4-0.1 c0,0,0.1,0,0.1-0.1c0.1,0,0.1-0.1,0.2-0.2c0,0,0.1-0.1,0.1-0.1c0,0,0.1,0,0.1-0.1c1.9-3,7.6-12.2,9.1-11.8c1.1,0.2,2,6.3,2.9,12.2 l0.2,1.3c0,0,0,0.1,0,0.1c0,0.1,0.1,0.2,0.1,0.2c0,0.1,0.1,0.1,0.1,0.2c0,0.1,0.1,0.1,0.1,0.2c0.1,0.1,0.1,0.1,0.2,0.2 c0,0,0,0,0.1,0.1c0.4,0.2,2,1,4.1,2c3,1.5,8,3.9,10.3,5.1c-1.4,0.9-4.4,2-6.3,2.8c-3.7,1.5-5.7,2.3-6.4,3.3 C32.9,31.7,33.2,33.2,34.4,37.2L34.4,37.2z"/></svg>